<svg width="75" height="75" viewBox="0 0 75 75" fill="none" xmlns="http://www.w3.org/2000/svg">
<path d="M1.50529 74.9358C2.84916 74.7816 4.18716 74.3126 5.76577 73.4516C6.7282 72.9312 7.53217 72.4044 9.68588 70.8882C10.572 70.265 11.9217 69.3462 12.6788 68.8515C17.7022 65.5813 18.8289 64.8296 19.8441 64.0908C20.472 63.6282 21.3347 62.9407 21.769 62.5617C22.1974 62.1762 22.8722 61.5787 23.2654 61.2318C24.0459 60.5379 25.1844 59.6962 27.1855 58.3406C29.2395 56.9529 29.4977 56.7152 32.0446 53.9589C33.2887 52.6162 34.5387 51.3119 34.8321 51.055C35.9999 50.0463 36.9271 49.5066 37.8132 49.3138C38.2651 49.2175 38.3003 49.2175 39.2686 49.3974C40.2193 49.5644 40.8648 49.5901 41.1406 49.468C41.1993 49.4423 41.2639 49.4873 41.3284 49.603C41.5925 50.0912 42.7427 51.858 43.2239 52.5198C44.826 54.6914 46.475 55.8414 48.5231 56.214C49.2156 56.3425 50.894 56.3618 51.7038 56.2462C52.4902 56.1369 53.5817 55.8992 54.6087 55.6037C57.5488 54.7685 58.5464 54.505 59.098 54.4023L59.7142 54.293L61.24 54.6207C66.0345 55.6551 68.0004 55.9827 70.3361 56.1048C71.633 56.1755 73.2175 56.1177 74.262 55.9506C74.6142 55.8992 74.931 55.8542 74.9604 55.8542C74.9956 55.8542 75.0073 55.8414 74.9956 55.8285C74.9839 55.8093 74.7315 55.7643 74.444 55.7257C69.5204 55.0512 66.2575 54.293 62.2376 52.8924C59.3621 51.8902 58.611 51.5625 57.895 51.01C56.827 50.1683 55.8645 48.5429 54.996 46.1207C54.7965 45.5554 54.5207 44.7908 54.3916 44.4182C53.7049 42.5036 52.5958 40.4798 51.1111 38.4432C49.9433 36.8434 49.6616 36.3487 48.5759 33.978C47.3847 31.3952 47.1675 31.0162 45.5361 28.6968C45.0197 27.9644 44.4152 27.0649 44.1922 26.6987C43.7697 26.0049 43.1946 24.8356 43.1946 24.6749C43.1946 24.6235 43.4528 24.4115 43.7638 24.2059C44.5913 23.6727 45.8706 22.7218 46.5924 22.105C47.3084 21.5011 48.9457 19.7407 49.4386 19.0597C50.6064 17.4278 51.4045 15.661 51.9327 13.5216L52.0501 13.0461L51.739 13.0847C51.5688 13.104 51.1815 13.2325 50.8764 13.3738C50.2837 13.6501 49.9785 13.74 49.8846 13.6758C49.8494 13.6565 49.9433 13.4445 50.1135 13.1746C50.5771 12.4165 51.1639 11.2472 51.6745 10.0458C52.2202 8.7544 52.3141 8.51026 52.2789 8.47171C52.2672 8.45244 52.0794 8.41389 51.8681 8.38177C51.4573 8.31752 50.8588 8.36249 49.7144 8.52954C49.3447 8.58736 48.9691 8.63233 48.8811 8.63233C48.7227 8.63233 48.7168 8.62591 48.7813 8.43317C48.8165 8.32395 49.1041 7.65577 49.421 6.95547C50.0254 5.6127 50.2895 4.88028 50.4069 4.23138C50.448 4.01936 50.4949 3.7945 50.5067 3.73667C50.536 3.63388 50.489 3.62103 50.1311 3.62103C49.3212 3.62103 48.4997 4.02579 47.0971 5.09872C46.2403 5.75405 45.5948 6.20378 45.5596 6.17165C45.5537 6.1588 45.6241 5.90824 45.7239 5.60628C46.3283 3.80735 46.5161 2.70229 46.4633 1.31454C46.4222 0.24161 46.3988 0.151664 46.1875 0.151664C45.9586 0.151664 45.3248 0.389379 44.961 0.614246C44.4915 0.909784 43.8577 1.48801 43.4293 2.02127C42.7603 2.85006 41.9974 3.6917 41.7392 3.89087L41.4928 4.07719V2.70229C41.4928 1.36594 41.4047 0.38938 41.258 0.0874163C41.1583 -0.118176 40.9587 0.016744 40.3132 0.729891C39.4681 1.65506 39.3273 1.68718 39.4036 0.922634C39.4505 0.4986 39.3801 0.280159 39.2099 0.280159C39.1336 0.280159 39.0574 0.408654 38.94 0.749165C38.2123 2.79866 37.0621 4.87386 34.6267 8.53596C33.9636 9.52537 33.1244 10.8296 32.7547 11.4271C32.385 12.031 32.0739 12.5322 32.0622 12.545C32.0563 12.5579 31.9918 12.5193 31.9272 12.4551C31.8216 12.3523 31.804 12.3523 31.669 12.4422C31.3815 12.6478 30.9237 13.4509 29.9613 15.4169C29.6151 16.1172 29.3099 16.7275 29.2747 16.7596C29.2395 16.7982 29.2336 16.7018 29.263 16.4962C29.2864 16.2714 29.2806 16.1493 29.2277 16.1172C29.1338 16.0529 29.128 16.0658 28.8991 16.7661C27.6726 20.5245 27.3146 25.3624 27.966 29.4806C28.0834 30.2131 28.3651 31.5109 28.5587 32.1726L28.7055 32.6802L28.5118 33.04C28.2184 33.5796 27.4085 34.4406 26.7337 34.9224C26.0647 35.4043 25.5189 35.7062 23.8933 36.5222C22.5553 37.1968 21.9157 37.563 21.3054 38.0127C20.7772 38.3982 20.0378 39.1692 19.7444 39.6382C19.5683 39.9209 19.3923 40.0686 18.7585 40.5055C17.1681 41.5913 15.9651 42.6193 14.8618 43.8335C14.3102 44.4439 14.2046 44.5338 13.9992 44.566C13.6412 44.6109 13.1072 44.8872 12.8431 45.1635C12.714 45.3048 12.0743 46.0822 11.4171 46.8917C9.96757 48.6971 9.24575 49.468 8.20116 50.3161C7.76104 50.6759 7.04509 51.2541 6.61669 51.6075C5.23174 52.7382 4.52753 53.5028 3.89961 54.55C3.5299 55.1539 3.26582 55.7514 3.34798 55.7771C3.54163 55.8542 10.2669 54.6849 10.9417 54.4601C11.0298 54.4344 11.0063 54.4986 10.8302 54.7685C9.69762 56.471 9.3103 57.3448 8.8643 59.2144C8.70586 59.8761 8.67651 59.9275 8.44177 60.146C7.58498 60.9234 7.17419 61.7008 7.16245 62.5681C7.15659 62.8058 7.12724 62.8508 6.69299 63.2556C6.44064 63.4933 5.95356 64.0265 5.61319 64.4377C4.90311 65.2858 2.46185 68.5303 2.2858 68.8644C2.22124 68.9864 2.12735 69.3526 2.0804 69.6803C1.9689 70.4513 1.78698 70.8625 1.12385 71.8519C0.149689 73.3039 -0.108521 73.9913 0.0381851 74.8008L0.0733948 75L0.583954 74.9936C0.859764 74.9872 1.27643 74.9614 1.50529 74.9358Z" fill="#105623"/>
</svg>
