<svg width="75" height="75" viewBox="0 0 75 75" fill="none" xmlns="http://www.w3.org/2000/svg">
<path d="M73.4947 74.9358C72.1508 74.7816 70.8128 74.3126 69.2342 73.4516C68.2718 72.9312 67.4678 72.4044 65.3141 70.8882C64.428 70.265 63.0783 69.3462 62.3212 68.8515C57.2978 65.5813 56.1711 64.8296 55.1559 64.0908C54.528 63.6282 53.6653 62.9407 53.231 62.5617C52.8026 62.1762 52.1278 61.5787 51.7346 61.2318C50.9541 60.5379 49.8156 59.6962 47.8145 58.3406C45.7605 56.9529 45.5023 56.7152 42.9554 53.9589C41.7113 52.6162 40.4613 51.3119 40.1679 51.055C39.0001 50.0463 38.0729 49.5066 37.1868 49.3138C36.7349 49.2175 36.6997 49.2175 35.7314 49.3974C34.7807 49.5644 34.1352 49.5901 33.8594 49.468C33.8007 49.4423 33.7361 49.4873 33.6716 49.603C33.4075 50.0912 32.2573 51.858 31.7761 52.5198C30.174 54.6914 28.525 55.8414 26.4769 56.214C25.7844 56.3425 24.106 56.3618 23.2962 56.2462C22.5098 56.1369 21.4183 55.8992 20.3913 55.6037C17.4512 54.7685 16.4536 54.505 15.902 54.4023L15.2858 54.293L13.76 54.6207C8.96549 55.6551 6.99957 55.9827 4.66393 56.1048C3.36701 56.1755 1.78253 56.1177 0.737955 55.9506C0.385849 55.8992 0.068954 55.8542 0.0396119 55.8542C0.00440132 55.8542 -0.00733553 55.8414 0.00440132 55.8285C0.0161382 55.8093 0.268481 55.7643 0.556033 55.7257C5.47964 55.0512 8.74249 54.293 12.7624 52.8924C15.6379 51.8902 16.389 51.5625 17.105 51.01C18.173 50.1683 19.1355 48.5429 20.004 46.1207C20.2035 45.5554 20.4793 44.7908 20.6084 44.4182C21.2951 42.5036 22.4042 40.4798 23.8889 38.4432C25.0567 36.8434 25.3384 36.3487 26.4241 33.978C27.6153 31.3952 27.8325 31.0162 29.4639 28.6968C29.9803 27.9644 30.5848 27.0649 30.8078 26.6987C31.2303 26.0049 31.8054 24.8356 31.8054 24.6749C31.8054 24.6235 31.5472 24.4115 31.2362 24.2059C30.4087 23.6727 29.1294 22.7218 28.4076 22.105C27.6916 21.5011 26.0543 19.7407 25.5614 19.0597C24.3936 17.4278 23.5955 15.661 23.0673 13.5216L22.9499 13.0461L23.261 13.0847C23.4312 13.104 23.8185 13.2325 24.1236 13.3738C24.7163 13.6501 25.0215 13.74 25.1154 13.6758C25.1506 13.6565 25.0567 13.4445 24.8865 13.1746C24.4229 12.4165 23.8361 11.2472 23.3255 10.0458C22.7798 8.7544 22.6859 8.51026 22.7211 8.47171C22.7328 8.45244 22.9206 8.41389 23.1319 8.38177C23.5427 8.31752 24.1412 8.36249 25.2856 8.52954C25.6553 8.58736 26.0309 8.63233 26.1189 8.63233C26.2773 8.63233 26.2832 8.62591 26.2187 8.43317C26.1835 8.32395 25.8959 7.65577 25.579 6.95547C24.9746 5.6127 24.7105 4.88028 24.5931 4.23138C24.552 4.01936 24.5051 3.7945 24.4933 3.73667C24.464 3.63388 24.511 3.62103 24.8689 3.62103C25.6788 3.62103 26.5003 4.02579 27.9029 5.09872C28.7597 5.75405 29.4052 6.20378 29.4404 6.17165C29.4463 6.1588 29.3759 5.90824 29.2761 5.60628C28.6717 3.80735 28.4839 2.70229 28.5367 1.31454C28.5778 0.24161 28.6012 0.151664 28.8125 0.151664C29.0414 0.151664 29.6752 0.389379 30.039 0.614246C30.5085 0.909784 31.1423 1.48801 31.5707 2.02127C32.2397 2.85006 33.0026 3.6917 33.2608 3.89087L33.5072 4.07719V2.70229C33.5072 1.36594 33.5953 0.38938 33.742 0.0874163C33.8417 -0.118176 34.0413 0.016744 34.6868 0.729891C35.5319 1.65506 35.6727 1.68718 35.5964 0.922634C35.5495 0.4986 35.6199 0.280159 35.7901 0.280159C35.8664 0.280159 35.9426 0.408654 36.06 0.749165C36.7877 2.79866 37.9379 4.87386 40.3733 8.53596C41.0364 9.52537 41.8756 10.8296 42.2453 11.4271C42.615 12.031 42.9261 12.5322 42.9378 12.545C42.9437 12.5579 43.0082 12.5193 43.0728 12.4551C43.1784 12.3523 43.196 12.3523 43.331 12.4422C43.6185 12.6478 44.0763 13.4509 45.0387 15.4169C45.3849 16.1172 45.6901 16.7275 45.7253 16.7596C45.7605 16.7982 45.7664 16.7018 45.737 16.4962C45.7136 16.2714 45.7194 16.1493 45.7723 16.1172C45.8662 16.0529 45.872 16.0658 46.1009 16.7661C47.3274 20.5245 47.6854 25.3624 47.034 29.4806C46.9166 30.2131 46.6349 31.5109 46.4413 32.1726L46.2945 32.6802L46.4882 33.04C46.7816 33.5796 47.5915 34.4406 48.2663 34.9224C48.9353 35.4043 49.4811 35.7062 51.1067 36.5222C52.4447 37.1968 53.0843 37.563 53.6946 38.0127C54.2228 38.3982 54.9622 39.1692 55.2556 39.6382C55.4317 39.9209 55.6077 40.0686 56.2415 40.5055C57.8319 41.5913 59.0349 42.6193 60.1382 43.8335C60.6898 44.4439 60.7954 44.5338 61.0008 44.566C61.3588 44.6109 61.8928 44.8872 62.1569 45.1635C62.286 45.3048 62.9257 46.0822 63.5829 46.8917C65.0324 48.6971 65.7542 49.468 66.7988 50.3161C67.239 50.6759 67.9549 51.2541 68.3833 51.6075C69.7683 52.7382 70.4725 53.5028 71.1004 54.55C71.4701 55.1539 71.7342 55.7514 71.652 55.7771C71.4584 55.8542 64.7331 54.6849 64.0583 54.4601C63.9702 54.4344 63.9937 54.4986 64.1698 54.7685C65.3024 56.471 65.6897 57.3448 66.1357 59.2144C66.2941 59.8761 66.3235 59.9275 66.5582 60.146C67.415 60.9234 67.8258 61.7008 67.8375 62.5681C67.8434 62.8058 67.8728 62.8508 68.307 63.2556C68.5594 63.4933 69.0464 64.0265 69.3868 64.4377C70.0969 65.2858 72.5382 68.5303 72.7142 68.8644C72.7788 68.9864 72.8727 69.3526 72.9196 69.6803C73.0311 70.4513 73.213 70.8625 73.8762 71.8519C74.8503 73.3039 75.1085 73.9913 74.9618 74.8008L74.9266 75L74.416 74.9936C74.1402 74.9872 73.7236 74.9614 73.4947 74.9358Z" fill="#105623"/>
</svg>
