<svg width="75" height="75" viewBox="0 0 75 75" fill="none" xmlns="http://www.w3.org/2000/svg">
<path d="M73.4947 0.0642471C72.1508 0.218445 70.8128 0.687447 69.2342 1.54836C68.2718 2.06877 67.4678 2.5956 65.3141 4.11184C64.428 4.73504 63.0783 5.65378 62.3212 6.14848C57.2978 9.41869 56.1711 10.1704 55.1559 10.9092C54.528 11.3718 53.6653 12.0593 53.231 12.4383C52.8026 12.8238 52.1278 13.4213 51.7346 13.7682C50.9541 14.4621 49.8156 15.3038 47.8145 16.6594C45.7605 18.0471 45.5023 18.2848 42.9554 21.0411C41.7113 22.3838 40.4613 23.6881 40.1679 23.945C39.0001 24.9537 38.0729 25.4934 37.1868 25.6862C36.7349 25.7825 36.6997 25.7825 35.7314 25.6026C34.7807 25.4356 34.1352 25.4099 33.8594 25.532C33.8007 25.5577 33.7361 25.5127 33.6716 25.397C33.4075 24.9088 32.2573 23.142 31.7761 22.4802C30.174 20.3086 28.525 19.1586 26.4769 18.786C25.7844 18.6575 24.106 18.6382 23.2962 18.7538C22.5098 18.8631 21.4183 19.1008 20.3913 19.3963C17.4512 20.2315 16.4536 20.495 15.902 20.5977L15.2858 20.707L13.76 20.3793C8.96549 19.3449 6.99957 19.0173 4.66393 18.8952C3.36701 18.8245 1.78253 18.8823 0.737955 19.0494C0.385849 19.1008 0.068954 19.1458 0.0396119 19.1458C0.00440132 19.1458 -0.00733553 19.1586 0.00440132 19.1715C0.0161382 19.1907 0.268481 19.2357 0.556033 19.2743C5.47964 19.9488 8.74249 20.707 12.7624 22.1076C15.6379 23.1098 16.389 23.4375 17.105 23.99C18.173 24.8317 19.1355 26.4571 20.004 28.8793C20.2035 29.4446 20.4793 30.2092 20.6084 30.5818C21.2951 32.4964 22.4042 34.5202 23.8889 36.5568C25.0567 38.1566 25.3384 38.6513 26.4241 41.022C27.6153 43.6048 27.8325 43.9838 29.4639 46.3032C29.9803 47.0356 30.5848 47.9351 30.8078 48.3013C31.2303 48.9951 31.8054 50.1644 31.8054 50.3251C31.8054 50.3765 31.5472 50.5885 31.2362 50.7941C30.4087 51.3273 29.1294 52.2782 28.4076 52.895C27.6916 53.4989 26.0543 55.2593 25.5614 55.9403C24.3936 57.5722 23.5955 59.339 23.0673 61.4784L22.9499 61.9539L23.261 61.9153C23.4312 61.896 23.8185 61.7675 24.1236 61.6262C24.7163 61.3499 25.0215 61.26 25.1154 61.3242C25.1506 61.3435 25.0567 61.5555 24.8865 61.8254C24.4229 62.5835 23.8361 63.7528 23.3255 64.9542C22.7798 66.2456 22.6859 66.4897 22.7211 66.5283C22.7328 66.5476 22.9206 66.5861 23.1319 66.6182C23.5427 66.6825 24.1412 66.6375 25.2856 66.4705C25.6553 66.4126 26.0309 66.3677 26.1189 66.3677C26.2773 66.3677 26.2832 66.3741 26.2187 66.5668C26.1835 66.6761 25.8959 67.3442 25.579 68.0445C24.9746 69.3873 24.7105 70.1197 24.5931 70.7686C24.552 70.9806 24.5051 71.2055 24.4933 71.2633C24.464 71.3661 24.511 71.379 24.8689 71.379C25.6788 71.379 26.5003 70.9742 27.9029 69.9013C28.7597 69.246 29.4052 68.7962 29.4404 68.8283C29.4463 68.8412 29.3759 69.0918 29.2761 69.3937C28.6717 71.1927 28.4839 72.2977 28.5367 73.6855C28.5778 74.7584 28.6012 74.8483 28.8125 74.8483C29.0414 74.8483 29.6752 74.6106 30.039 74.3858C30.5085 74.0902 31.1423 73.512 31.5707 72.9787C32.2397 72.1499 33.0026 71.3083 33.2608 71.1091L33.5072 70.9228V72.2977C33.5072 73.6341 33.5953 74.6106 33.742 74.9126C33.8417 75.1182 34.0413 74.9833 34.6868 74.2701C35.5319 73.3449 35.6727 73.3128 35.5964 74.0774C35.5495 74.5014 35.6199 74.7198 35.7901 74.7198C35.8664 74.7198 35.9426 74.5913 36.06 74.2508C36.7877 72.2013 37.9379 70.1261 40.3733 66.464C41.0364 65.4746 41.8756 64.1704 42.2453 63.5729C42.615 62.969 42.9261 62.4678 42.9378 62.455C42.9437 62.4421 43.0082 62.4807 43.0728 62.5449C43.1784 62.6477 43.196 62.6477 43.331 62.5578C43.6185 62.3522 44.0763 61.5491 45.0387 59.5831C45.3849 58.8828 45.6901 58.2725 45.7253 58.2404C45.7605 58.2018 45.7664 58.2982 45.737 58.5038C45.7136 58.7286 45.7194 58.8507 45.7723 58.8828C45.8662 58.9471 45.872 58.9342 46.1009 58.2339C47.3274 54.4755 47.6854 49.6376 47.034 45.5194C46.9166 44.7869 46.6349 43.4891 46.4413 42.8274L46.2945 42.3198L46.4882 41.96C46.7816 41.4204 47.5915 40.5594 48.2663 40.0776C48.9353 39.5957 49.4811 39.2938 51.1067 38.4778C52.4447 37.8032 53.0843 37.437 53.6946 36.9873C54.2228 36.6018 54.9622 35.8308 55.2556 35.3618C55.4317 35.0791 55.6077 34.9314 56.2415 34.4945C57.8319 33.4087 59.0349 32.3807 60.1382 31.1665C60.6898 30.5561 60.7954 30.4662 61.0008 30.434C61.3588 30.3891 61.8928 30.1128 62.1569 29.8365C62.286 29.6952 62.9257 28.9178 63.5829 28.1083C65.0324 26.3029 65.7542 25.532 66.7988 24.6839C67.239 24.3241 67.9549 23.7459 68.3833 23.3925C69.7683 22.2618 70.4725 21.4972 71.1004 20.45C71.4701 19.8461 71.7342 19.2486 71.652 19.2229C71.4584 19.1458 64.7331 20.3151 64.0583 20.5399C63.9702 20.5656 63.9937 20.5014 64.1698 20.2315C65.3024 18.529 65.6897 17.6552 66.1357 15.7856C66.2941 15.1239 66.3235 15.0725 66.5582 14.854C67.415 14.0766 67.8258 13.2992 67.8375 12.4319C67.8434 12.1942 67.8728 12.1492 68.307 11.7444C68.5594 11.5067 69.0464 10.9735 69.3868 10.5623C70.0969 9.71422 72.5382 6.46973 72.7142 6.13564C72.7788 6.01357 72.8727 5.64735 72.9196 5.31969C73.0311 4.54872 73.213 4.13754 73.8762 3.14812C74.8503 1.69614 75.1085 1.00868 74.9618 0.199165L74.9266 0L74.416 0.00642395C74.1402 0.0128479 73.7236 0.0385513 73.4947 0.0642471Z" fill="#105623"/>
</svg>
