<svg width="75" height="75" viewBox="0 0 75 75" fill="none" xmlns="http://www.w3.org/2000/svg">
<path d="M1.50529 0.0642471C2.84916 0.218445 4.18716 0.687447 5.76577 1.54836C6.7282 2.06877 7.53217 2.5956 9.68588 4.11184C10.572 4.73504 11.9217 5.65378 12.6788 6.14848C17.7022 9.41869 18.8289 10.1704 19.8441 10.9092C20.472 11.3718 21.3347 12.0593 21.769 12.4383C22.1974 12.8238 22.8722 13.4213 23.2654 13.7682C24.0459 14.4621 25.1844 15.3038 27.1855 16.6594C29.2395 18.0471 29.4977 18.2848 32.0446 21.0411C33.2887 22.3838 34.5387 23.6881 34.8321 23.945C35.9999 24.9537 36.9271 25.4934 37.8132 25.6862C38.2651 25.7825 38.3003 25.7825 39.2686 25.6026C40.2193 25.4356 40.8648 25.4099 41.1406 25.532C41.1993 25.5577 41.2639 25.5127 41.3284 25.397C41.5925 24.9088 42.7427 23.142 43.2239 22.4802C44.826 20.3086 46.475 19.1586 48.5231 18.786C49.2156 18.6575 50.894 18.6382 51.7038 18.7538C52.4902 18.8631 53.5817 19.1008 54.6087 19.3963C57.5488 20.2315 58.5464 20.495 59.098 20.5977L59.7142 20.707L61.24 20.3793C66.0345 19.3449 68.0004 19.0173 70.3361 18.8952C71.633 18.8245 73.2175 18.8823 74.262 19.0494C74.6142 19.1008 74.931 19.1458 74.9604 19.1458C74.9956 19.1458 75.0073 19.1586 74.9956 19.1715C74.9839 19.1907 74.7315 19.2357 74.444 19.2743C69.5204 19.9488 66.2575 20.707 62.2376 22.1076C59.3621 23.1098 58.611 23.4375 57.895 23.99C56.827 24.8317 55.8645 26.4571 54.996 28.8793C54.7965 29.4446 54.5207 30.2092 54.3916 30.5818C53.7049 32.4964 52.5958 34.5202 51.1111 36.5568C49.9433 38.1566 49.6616 38.6513 48.5759 41.022C47.3847 43.6048 47.1675 43.9838 45.5361 46.3032C45.0197 47.0356 44.4152 47.9351 44.1922 48.3013C43.7697 48.9951 43.1946 50.1644 43.1946 50.3251C43.1946 50.3765 43.4528 50.5885 43.7638 50.7941C44.5913 51.3273 45.8706 52.2782 46.5924 52.895C47.3084 53.4989 48.9457 55.2593 49.4386 55.9403C50.6064 57.5722 51.4045 59.339 51.9327 61.4784L52.0501 61.9539L51.739 61.9153C51.5688 61.896 51.1815 61.7675 50.8764 61.6262C50.2837 61.3499 49.9785 61.26 49.8846 61.3242C49.8494 61.3435 49.9433 61.5555 50.1135 61.8254C50.5771 62.5835 51.1639 63.7528 51.6745 64.9542C52.2202 66.2456 52.3141 66.4897 52.2789 66.5283C52.2672 66.5476 52.0794 66.5861 51.8681 66.6182C51.4573 66.6825 50.8588 66.6375 49.7144 66.4705C49.3447 66.4126 48.9691 66.3677 48.8811 66.3677C48.7227 66.3677 48.7168 66.3741 48.7813 66.5668C48.8165 66.6761 49.1041 67.3442 49.421 68.0445C50.0254 69.3873 50.2895 70.1197 50.4069 70.7686C50.448 70.9806 50.4949 71.2055 50.5067 71.2633C50.536 71.3661 50.489 71.379 50.1311 71.379C49.3212 71.379 48.4997 70.9742 47.0971 69.9013C46.2403 69.246 45.5948 68.7962 45.5596 68.8283C45.5537 68.8412 45.6241 69.0918 45.7239 69.3937C46.3283 71.1927 46.5161 72.2977 46.4633 73.6855C46.4222 74.7584 46.3988 74.8483 46.1875 74.8483C45.9586 74.8483 45.3248 74.6106 44.961 74.3858C44.4915 74.0902 43.8577 73.512 43.4293 72.9787C42.7603 72.1499 41.9974 71.3083 41.7392 71.1091L41.4928 70.9228V72.2977C41.4928 73.6341 41.4047 74.6106 41.258 74.9126C41.1583 75.1182 40.9587 74.9833 40.3132 74.2701C39.4681 73.3449 39.3273 73.3128 39.4036 74.0774C39.4505 74.5014 39.3801 74.7198 39.2099 74.7198C39.1336 74.7198 39.0574 74.5913 38.94 74.2508C38.2123 72.2013 37.0621 70.1261 34.6267 66.464C33.9636 65.4746 33.1244 64.1704 32.7547 63.5729C32.385 62.969 32.0739 62.4678 32.0622 62.455C32.0563 62.4421 31.9918 62.4807 31.9272 62.5449C31.8216 62.6477 31.804 62.6477 31.669 62.5578C31.3815 62.3522 30.9237 61.5491 29.9613 59.5831C29.6151 58.8828 29.3099 58.2725 29.2747 58.2404C29.2395 58.2018 29.2336 58.2982 29.263 58.5038C29.2864 58.7286 29.2806 58.8507 29.2277 58.8828C29.1338 58.9471 29.128 58.9342 28.8991 58.2339C27.6726 54.4755 27.3146 49.6376 27.966 45.5194C28.0834 44.7869 28.3651 43.4891 28.5587 42.8274L28.7055 42.3198L28.5118 41.96C28.2184 41.4204 27.4085 40.5594 26.7337 40.0776C26.0647 39.5957 25.5189 39.2938 23.8933 38.4778C22.5553 37.8032 21.9157 37.437 21.3054 36.9873C20.7772 36.6018 20.0378 35.8308 19.7444 35.3618C19.5683 35.0791 19.3923 34.9314 18.7585 34.4945C17.1681 33.4087 15.9651 32.3807 14.8618 31.1665C14.3102 30.5561 14.2046 30.4662 13.9992 30.434C13.6412 30.3891 13.1072 30.1128 12.8431 29.8365C12.714 29.6952 12.0743 28.9178 11.4171 28.1083C9.96757 26.3029 9.24575 25.532 8.20116 24.6839C7.76104 24.3241 7.04509 23.7459 6.61669 23.3925C5.23174 22.2618 4.52753 21.4972 3.89961 20.45C3.5299 19.8461 3.26582 19.2486 3.34798 19.2229C3.54163 19.1458 10.2669 20.3151 10.9417 20.5399C11.0298 20.5656 11.0063 20.5014 10.8302 20.2315C9.69762 18.529 9.3103 17.6552 8.8643 15.7856C8.70586 15.1239 8.67651 15.0725 8.44177 14.854C7.58498 14.0766 7.17419 13.2992 7.16245 12.4319C7.15659 12.1942 7.12724 12.1492 6.69299 11.7444C6.44064 11.5067 5.95356 10.9735 5.61319 10.5623C4.90311 9.71422 2.46185 6.46973 2.2858 6.13564C2.22124 6.01357 2.12735 5.64735 2.0804 5.31969C1.9689 4.54872 1.78698 4.13754 1.12385 3.14812C0.149689 1.69614 -0.108521 1.00868 0.0381851 0.199165L0.0733948 0L0.583954 0.00642395C0.859764 0.0128479 1.27643 0.0385513 1.50529 0.0642471Z" fill="#105623"/>
</svg>
