<svg width="300" height="300" viewBox="0 0 300 300" fill="none" xmlns="http://www.w3.org/2000/svg">
<rect width="300" height="300" fill="#E5E5E5"/>
<rect width="300" height="300" fill="#C579E9"/>
<path d="M28.5053 98.9358C29.8492 98.7816 31.1872 98.3126 32.7658 97.4516C33.7282 96.9312 34.5322 96.4044 36.6859 94.8882C37.572 94.265 38.9218 93.3462 39.6788 92.8515C44.7022 89.5813 45.8289 88.8296 46.8441 88.0908C47.472 87.6282 48.3347 86.9407 48.769 86.5617C49.1974 86.1762 49.8722 85.5787 50.2654 85.2318C51.0459 84.5379 52.1844 83.6962 54.1855 82.3406C56.2395 80.9529 56.4977 80.7152 59.0446 77.9589C60.2887 76.6162 61.5387 75.3119 61.8321 75.055C62.9999 74.0463 63.9271 73.5066 64.8132 73.3138C65.2651 73.2175 65.3003 73.2175 66.2686 73.3974C67.2193 73.5644 67.8648 73.5901 68.1406 73.468C68.1993 73.4423 68.2639 73.4873 68.3284 73.603C68.5925 74.0912 69.7427 75.858 70.2239 76.5198C71.826 78.6914 73.475 79.8414 75.5231 80.214C76.2156 80.3425 77.894 80.3618 78.7038 80.2462C79.4902 80.1369 80.5817 79.8992 81.6087 79.6037C84.5488 78.7685 85.5464 78.505 86.098 78.4023L86.7142 78.293L88.24 78.6207C93.0345 79.6551 95.0004 79.9827 97.3361 80.1048C98.633 80.1755 100.217 80.1177 101.262 79.9506C101.614 79.8992 101.931 79.8542 101.96 79.8542C101.996 79.8542 102.007 79.8414 101.996 79.8285C101.984 79.8093 101.732 79.7643 101.444 79.7258C96.5204 79.0512 93.2575 78.293 89.2376 76.8924C86.3621 75.8902 85.611 75.5625 84.895 75.01C83.827 74.1683 82.8645 72.5429 81.996 70.1207C81.7965 69.5554 81.5207 68.7908 81.3916 68.4182C80.7049 66.5036 79.5958 64.4798 78.1111 62.4432C76.9433 60.8434 76.6616 60.3487 75.5759 57.978C74.3847 55.3952 74.1675 55.0162 72.5361 52.6968C72.0197 51.9644 71.4152 51.0649 71.1922 50.6987C70.7697 50.0049 70.1946 48.8356 70.1946 48.6749C70.1946 48.6235 70.4528 48.4115 70.7638 48.2059C71.5913 47.6727 72.8706 46.7218 73.5924 46.105C74.3084 45.5011 75.9457 43.7407 76.4386 43.0597C77.6064 41.4278 78.4045 39.661 78.9327 37.5216L79.0501 37.0461L78.739 37.0847C78.5688 37.104 78.1815 37.2325 77.8764 37.3738C77.2837 37.6501 76.9785 37.74 76.8846 37.6758C76.8494 37.6565 76.9433 37.4445 77.1135 37.1746C77.5771 36.4165 78.1639 35.2472 78.6745 34.0458C79.2202 32.7544 79.3141 32.5103 79.2789 32.4717C79.2672 32.4524 79.0794 32.4139 78.8681 32.3818C78.4573 32.3175 77.8588 32.3625 76.7144 32.5295C76.3447 32.5874 75.9691 32.6323 75.8811 32.6323C75.7227 32.6323 75.7168 32.6259 75.7813 32.4332C75.8165 32.3239 76.1041 31.6558 76.421 30.9555C77.0254 29.6127 77.2895 28.8803 77.4069 28.2314C77.448 28.0194 77.4949 27.7945 77.5067 27.7367C77.536 27.6339 77.489 27.621 77.1311 27.621C76.3212 27.621 75.4997 28.0258 74.0971 29.0987C73.2403 29.754 72.5948 30.2038 72.5596 30.1717C72.5537 30.1588 72.6241 29.9082 72.7239 29.6063C73.3283 27.8073 73.5161 26.7023 73.4633 25.3145C73.4222 24.2416 73.3988 24.1517 73.1875 24.1517C72.9586 24.1517 72.3248 24.3894 71.961 24.6142C71.4915 24.9098 70.8577 25.488 70.4293 26.0213C69.7603 26.8501 68.9974 27.6917 68.7392 27.8909L68.4928 28.0772V26.7023C68.4928 25.3659 68.4047 24.3894 68.258 24.0874C68.1583 23.8818 67.9587 24.0167 67.3132 24.7299C66.4681 25.6551 66.3273 25.6872 66.4036 24.9226C66.4505 24.4986 66.3801 24.2802 66.2099 24.2802C66.1336 24.2802 66.0574 24.4087 65.94 24.7492C65.2123 26.7987 64.0621 28.8739 61.6267 32.536C60.9636 33.5254 60.1244 34.8296 59.7547 35.4271C59.385 36.031 59.0739 36.5322 59.0622 36.545C59.0563 36.5579 58.9918 36.5193 58.9272 36.4551C58.8216 36.3523 58.804 36.3523 58.669 36.4422C58.3815 36.6478 57.9237 37.4509 56.9613 39.4169C56.6151 40.1172 56.3099 40.7275 56.2747 40.7596C56.2395 40.7982 56.2336 40.7018 56.263 40.4962C56.2864 40.2714 56.2806 40.1493 56.2277 40.1172C56.1338 40.0529 56.128 40.0658 55.8991 40.7661C54.6726 44.5245 54.3146 49.3624 54.966 53.4806C55.0834 54.2131 55.3651 55.5109 55.5587 56.1726L55.7055 56.6802L55.5118 57.04C55.2184 57.5796 54.4085 58.4406 53.7337 58.9224C53.0647 59.4043 52.5189 59.7062 50.8933 60.5222C49.5553 61.1968 48.9157 61.563 48.3054 62.0127C47.7772 62.3982 47.0378 63.1692 46.7444 63.6382C46.5683 63.9209 46.3923 64.0686 45.7585 64.5055C44.1681 65.5913 42.9651 66.6193 41.8618 67.8335C41.3102 68.4439 41.2046 68.5338 40.9992 68.566C40.6412 68.6109 40.1072 68.8872 39.8431 69.1635C39.714 69.3048 39.0743 70.0822 38.4171 70.8917C36.9676 72.6971 36.2457 73.468 35.2012 74.3161C34.761 74.6759 34.0451 75.2541 33.6167 75.6075C32.2317 76.7382 31.5275 77.5028 30.8996 78.55C30.5299 79.1539 30.2658 79.7514 30.348 79.7771C30.5416 79.8542 37.2669 78.6849 37.9417 78.4601C38.0297 78.4344 38.0063 78.4986 37.8302 78.7685C36.6976 80.471 36.3103 81.3448 35.8643 83.2144C35.7059 83.8761 35.6765 83.9275 35.4418 84.146C34.585 84.9234 34.1742 85.7008 34.1625 86.5681C34.1566 86.8058 34.1272 86.8508 33.693 87.2556C33.4406 87.4933 32.9536 88.0265 32.6132 88.4377C31.9031 89.2858 29.4618 92.5303 29.2858 92.8644C29.2212 92.9864 29.1273 93.3526 29.0804 93.6803C28.9689 94.4513 28.787 94.8625 28.1238 95.8519C27.1497 97.3039 26.8915 97.9913 27.0382 98.8008L27.0734 99L27.584 98.9936C27.8598 98.9872 28.2764 98.9615 28.5053 98.9358Z" fill="#7C009B"/>
<path d="M28.5053 187.064C29.8492 187.218 31.1872 187.687 32.7658 188.548C33.7282 189.069 34.5322 189.596 36.6859 191.112C37.572 191.735 38.9218 192.654 39.6788 193.148C44.7022 196.419 45.8289 197.17 46.8441 197.909C47.472 198.372 48.3347 199.059 48.769 199.438C49.1974 199.824 49.8722 200.421 50.2654 200.768C51.0459 201.462 52.1844 202.304 54.1855 203.659C56.2395 205.047 56.4977 205.285 59.0446 208.041C60.2887 209.384 61.5387 210.688 61.8321 210.945C62.9999 211.954 63.9271 212.493 64.8132 212.686C65.2651 212.783 65.3003 212.783 66.2686 212.603C67.2193 212.436 67.8648 212.41 68.1406 212.532C68.1993 212.558 68.2639 212.513 68.3284 212.397C68.5925 211.909 69.7427 210.142 70.2239 209.48C71.826 207.309 73.475 206.159 75.5231 205.786C76.2156 205.657 77.894 205.638 78.7038 205.754C79.4902 205.863 80.5817 206.101 81.6087 206.396C84.5488 207.232 85.5464 207.495 86.098 207.598L86.7142 207.707L88.24 207.379C93.0345 206.345 95.0004 206.017 97.3361 205.895C98.633 205.825 100.217 205.882 101.262 206.049C101.614 206.101 101.931 206.146 101.96 206.146C101.996 206.146 102.007 206.159 101.996 206.171C101.984 206.191 101.732 206.236 101.444 206.274C96.5204 206.949 93.2575 207.707 89.2376 209.108C86.3621 210.11 85.611 210.437 84.895 210.99C83.827 211.832 82.8645 213.457 81.996 215.879C81.7965 216.445 81.5207 217.209 81.3916 217.582C80.7049 219.496 79.5958 221.52 78.1111 223.557C76.9433 225.157 76.6616 225.651 75.5759 228.022C74.3847 230.605 74.1675 230.984 72.5361 233.303C72.0197 234.036 71.4152 234.935 71.1922 235.301C70.7697 235.995 70.1946 237.164 70.1946 237.325C70.1946 237.376 70.4528 237.588 70.7638 237.794C71.5913 238.327 72.8706 239.278 73.5924 239.895C74.3084 240.499 75.9457 242.259 76.4386 242.94C77.6064 244.572 78.4045 246.339 78.9327 248.478L79.0501 248.954L78.739 248.915C78.5688 248.896 78.1815 248.768 77.8764 248.626C77.2837 248.35 76.9785 248.26 76.8846 248.324C76.8494 248.344 76.9433 248.556 77.1135 248.825C77.5771 249.583 78.1639 250.753 78.6745 251.954C79.2202 253.246 79.3141 253.49 79.2789 253.528C79.2672 253.548 79.0794 253.586 78.8681 253.618C78.4573 253.682 77.8588 253.638 76.7144 253.47C76.3447 253.413 75.9691 253.368 75.8811 253.368C75.7227 253.368 75.7168 253.374 75.7813 253.567C75.8165 253.676 76.1041 254.344 76.421 255.045C77.0254 256.387 77.2895 257.12 77.4069 257.769C77.448 257.981 77.4949 258.206 77.5067 258.263C77.536 258.366 77.489 258.379 77.1311 258.379C76.3212 258.379 75.4997 257.974 74.0971 256.901C73.2403 256.246 72.5948 255.796 72.5596 255.828C72.5537 255.841 72.6241 256.092 72.7239 256.394C73.3283 258.193 73.5161 259.298 73.4633 260.685C73.4222 261.758 73.3988 261.848 73.1875 261.848C72.9586 261.848 72.3248 261.611 71.961 261.386C71.4915 261.09 70.8577 260.512 70.4293 259.979C69.7603 259.15 68.9974 258.308 68.7392 258.109L68.4928 257.923V259.298C68.4928 260.634 68.4047 261.611 68.258 261.913C68.1583 262.118 67.9587 261.983 67.3132 261.27C66.4681 260.345 66.3273 260.313 66.4036 261.077C66.4505 261.501 66.3801 261.72 66.2099 261.72C66.1336 261.72 66.0574 261.591 65.94 261.251C65.2123 259.201 64.0621 257.126 61.6267 253.464C60.9636 252.475 60.1244 251.17 59.7547 250.573C59.385 249.969 59.0739 249.468 59.0622 249.455C59.0563 249.442 58.9918 249.481 58.9272 249.545C58.8216 249.648 58.804 249.648 58.669 249.558C58.3815 249.352 57.9237 248.549 56.9613 246.583C56.6151 245.883 56.3099 245.272 56.2747 245.24C56.2395 245.202 56.2336 245.298 56.263 245.504C56.2864 245.729 56.2806 245.851 56.2277 245.883C56.1338 245.947 56.128 245.934 55.8991 245.234C54.6726 241.475 54.3146 236.638 54.966 232.519C55.0834 231.787 55.3651 230.489 55.5587 229.827L55.7055 229.32L55.5118 228.96C55.2184 228.42 54.4085 227.559 53.7337 227.078C53.0647 226.596 52.5189 226.294 50.8933 225.478C49.5553 224.803 48.9157 224.437 48.3054 223.987C47.7772 223.602 47.0378 222.831 46.7444 222.362C46.5683 222.079 46.3923 221.931 45.7585 221.494C44.1681 220.409 42.9651 219.381 41.8618 218.166C41.3102 217.556 41.2046 217.466 40.9992 217.434C40.6412 217.389 40.1072 217.113 39.8431 216.837C39.714 216.695 39.0743 215.918 38.4171 215.108C36.9676 213.303 36.2457 212.532 35.2012 211.684C34.761 211.324 34.0451 210.746 33.6167 210.393C32.2317 209.262 31.5275 208.497 30.8996 207.45C30.5299 206.846 30.2658 206.249 30.348 206.223C30.5416 206.146 37.2669 207.315 37.9417 207.54C38.0297 207.566 38.0063 207.501 37.8302 207.232C36.6976 205.529 36.3103 204.655 35.8643 202.786C35.7059 202.124 35.6765 202.072 35.4418 201.854C34.585 201.077 34.1742 200.299 34.1625 199.432C34.1566 199.194 34.1272 199.149 33.693 198.744C33.4406 198.507 32.9536 197.973 32.6132 197.562C31.9031 196.714 29.4618 193.47 29.2858 193.136C29.2212 193.014 29.1273 192.647 29.0804 192.32C28.9689 191.549 28.787 191.138 28.1238 190.148C27.1497 188.696 26.8915 188.009 27.0382 187.199L27.0734 187L27.584 187.006C27.8598 187.013 28.2764 187.039 28.5053 187.064Z" fill="#7C009B"/>
<path d="M273.495 187.064C272.151 187.218 270.813 187.687 269.234 188.548C268.272 189.069 267.468 189.596 265.314 191.112C264.428 191.735 263.078 192.654 262.321 193.148C257.298 196.419 256.171 197.17 255.156 197.909C254.528 198.372 253.665 199.059 253.231 199.438C252.803 199.824 252.128 200.421 251.735 200.768C250.954 201.462 249.816 202.304 247.814 203.659C245.761 205.047 245.502 205.285 242.955 208.041C241.711 209.384 240.461 210.688 240.168 210.945C239 211.954 238.073 212.493 237.187 212.686C236.735 212.783 236.7 212.783 235.731 212.603C234.781 212.436 234.135 212.41 233.859 212.532C233.801 212.558 233.736 212.513 233.672 212.397C233.407 211.909 232.257 210.142 231.776 209.48C230.174 207.309 228.525 206.159 226.477 205.786C225.784 205.657 224.106 205.638 223.296 205.754C222.51 205.863 221.418 206.101 220.391 206.396C217.451 207.232 216.454 207.495 215.902 207.598L215.286 207.707L213.76 207.379C208.965 206.345 207 206.017 204.664 205.895C203.367 205.825 201.783 205.882 200.738 206.049C200.386 206.101 200.069 206.146 200.04 206.146C200.004 206.146 199.993 206.159 200.004 206.171C200.016 206.191 200.268 206.236 200.556 206.274C205.48 206.949 208.742 207.707 212.762 209.108C215.638 210.11 216.389 210.437 217.105 210.99C218.173 211.832 219.135 213.457 220.004 215.879C220.204 216.445 220.479 217.209 220.608 217.582C221.295 219.496 222.404 221.52 223.889 223.557C225.057 225.157 225.338 225.651 226.424 228.022C227.615 230.605 227.832 230.984 229.464 233.303C229.98 234.036 230.585 234.935 230.808 235.301C231.23 235.995 231.805 237.164 231.805 237.325C231.805 237.376 231.547 237.588 231.236 237.794C230.409 238.327 229.129 239.278 228.408 239.895C227.692 240.499 226.054 242.259 225.561 242.94C224.394 244.572 223.595 246.339 223.067 248.478L222.95 248.954L223.261 248.915C223.431 248.896 223.818 248.768 224.124 248.626C224.716 248.35 225.022 248.26 225.115 248.324C225.151 248.344 225.057 248.556 224.887 248.825C224.423 249.583 223.836 250.753 223.326 251.954C222.78 253.246 222.686 253.49 222.721 253.528C222.733 253.548 222.921 253.586 223.132 253.618C223.543 253.682 224.141 253.638 225.286 253.47C225.655 253.413 226.031 253.368 226.119 253.368C226.277 253.368 226.283 253.374 226.219 253.567C226.183 253.676 225.896 254.344 225.579 255.045C224.975 256.387 224.71 257.12 224.593 257.769C224.552 257.981 224.505 258.206 224.493 258.263C224.464 258.366 224.511 258.379 224.869 258.379C225.679 258.379 226.5 257.974 227.903 256.901C228.76 256.246 229.405 255.796 229.44 255.828C229.446 255.841 229.376 256.092 229.276 256.394C228.672 258.193 228.484 259.298 228.537 260.685C228.578 261.758 228.601 261.848 228.813 261.848C229.041 261.848 229.675 261.611 230.039 261.386C230.508 261.09 231.142 260.512 231.571 259.979C232.24 259.15 233.003 258.308 233.261 258.109L233.507 257.923V259.298C233.507 260.634 233.595 261.611 233.742 261.913C233.842 262.118 234.041 261.983 234.687 261.27C235.532 260.345 235.673 260.313 235.596 261.077C235.549 261.501 235.62 261.72 235.79 261.72C235.866 261.72 235.943 261.591 236.06 261.251C236.788 259.201 237.938 257.126 240.373 253.464C241.036 252.475 241.876 251.17 242.245 250.573C242.615 249.969 242.926 249.468 242.938 249.455C242.944 249.442 243.008 249.481 243.073 249.545C243.178 249.648 243.196 249.648 243.331 249.558C243.619 249.352 244.076 248.549 245.039 246.583C245.385 245.883 245.69 245.272 245.725 245.24C245.761 245.202 245.766 245.298 245.737 245.504C245.714 245.729 245.719 245.851 245.772 245.883C245.866 245.947 245.872 245.934 246.101 245.234C247.327 241.475 247.685 236.638 247.034 232.519C246.917 231.787 246.635 230.489 246.441 229.827L246.295 229.32L246.488 228.96C246.782 228.42 247.591 227.559 248.266 227.078C248.935 226.596 249.481 226.294 251.107 225.478C252.445 224.803 253.084 224.437 253.695 223.987C254.223 223.602 254.962 222.831 255.256 222.362C255.432 222.079 255.608 221.931 256.242 221.494C257.832 220.409 259.035 219.381 260.138 218.166C260.69 217.556 260.795 217.466 261.001 217.434C261.359 217.389 261.893 217.113 262.157 216.837C262.286 216.695 262.926 215.918 263.583 215.108C265.032 213.303 265.754 212.532 266.799 211.684C267.239 211.324 267.955 210.746 268.383 210.393C269.768 209.262 270.472 208.497 271.1 207.45C271.47 206.846 271.734 206.249 271.652 206.223C271.458 206.146 264.733 207.315 264.058 207.54C263.97 207.566 263.994 207.501 264.17 207.232C265.302 205.529 265.69 204.655 266.136 202.786C266.294 202.124 266.323 202.072 266.558 201.854C267.415 201.077 267.826 200.299 267.838 199.432C267.843 199.194 267.873 199.149 268.307 198.744C268.559 198.507 269.046 197.973 269.387 197.562C270.097 196.714 272.538 193.47 272.714 193.136C272.779 193.014 272.873 192.647 272.92 192.32C273.031 191.549 273.213 191.138 273.876 190.148C274.85 188.696 275.109 188.009 274.962 187.199L274.927 187L274.416 187.006C274.14 187.013 273.724 187.039 273.495 187.064Z" fill="#7C009B"/>
<path d="M273.495 96.9358C272.151 96.7816 270.813 96.3126 269.234 95.4516C268.272 94.9312 267.468 94.4044 265.314 92.8882C264.428 92.265 263.078 91.3462 262.321 90.8515C257.298 87.5813 256.171 86.8296 255.156 86.0908C254.528 85.6282 253.665 84.9407 253.231 84.5617C252.803 84.1762 252.128 83.5787 251.735 83.2318C250.954 82.5379 249.816 81.6962 247.814 80.3406C245.761 78.9529 245.502 78.7152 242.955 75.9589C241.711 74.6162 240.461 73.3119 240.168 73.055C239 72.0463 238.073 71.5066 237.187 71.3138C236.735 71.2175 236.7 71.2175 235.731 71.3974C234.781 71.5644 234.135 71.5901 233.859 71.468C233.801 71.4423 233.736 71.4873 233.672 71.603C233.407 72.0912 232.257 73.858 231.776 74.5198C230.174 76.6914 228.525 77.8414 226.477 78.214C225.784 78.3425 224.106 78.3618 223.296 78.2462C222.51 78.1369 221.418 77.8992 220.391 77.6037C217.451 76.7685 216.454 76.505 215.902 76.4023L215.286 76.293L213.76 76.6207C208.965 77.6551 207 77.9827 204.664 78.1048C203.367 78.1755 201.783 78.1177 200.738 77.9506C200.386 77.8992 200.069 77.8542 200.04 77.8542C200.004 77.8542 199.993 77.8414 200.004 77.8285C200.016 77.8093 200.268 77.7643 200.556 77.7258C205.48 77.0512 208.742 76.293 212.762 74.8924C215.638 73.8902 216.389 73.5625 217.105 73.01C218.173 72.1683 219.135 70.5429 220.004 68.1207C220.204 67.5554 220.479 66.7908 220.608 66.4182C221.295 64.5036 222.404 62.4798 223.889 60.4432C225.057 58.8434 225.338 58.3487 226.424 55.978C227.615 53.3952 227.832 53.0162 229.464 50.6968C229.98 49.9644 230.585 49.0649 230.808 48.6987C231.23 48.0049 231.805 46.8356 231.805 46.6749C231.805 46.6235 231.547 46.4115 231.236 46.2059C230.409 45.6727 229.129 44.7218 228.408 44.105C227.692 43.5011 226.054 41.7407 225.561 41.0597C224.394 39.4278 223.595 37.661 223.067 35.5216L222.95 35.0461L223.261 35.0847C223.431 35.104 223.818 35.2325 224.124 35.3738C224.716 35.6501 225.022 35.74 225.115 35.6758C225.151 35.6565 225.057 35.4445 224.887 35.1746C224.423 34.4165 223.836 33.2472 223.326 32.0458C222.78 30.7544 222.686 30.5103 222.721 30.4717C222.733 30.4524 222.921 30.4139 223.132 30.3818C223.543 30.3175 224.141 30.3625 225.286 30.5295C225.655 30.5874 226.031 30.6323 226.119 30.6323C226.277 30.6323 226.283 30.6259 226.219 30.4332C226.183 30.3239 225.896 29.6558 225.579 28.9555C224.975 27.6127 224.71 26.8803 224.593 26.2314C224.552 26.0194 224.505 25.7945 224.493 25.7367C224.464 25.6339 224.511 25.621 224.869 25.621C225.679 25.621 226.5 26.0258 227.903 27.0987C228.76 27.754 229.405 28.2038 229.44 28.1717C229.446 28.1588 229.376 27.9082 229.276 27.6063C228.672 25.8073 228.484 24.7023 228.537 23.3145C228.578 22.2416 228.601 22.1517 228.813 22.1517C229.041 22.1517 229.675 22.3894 230.039 22.6142C230.508 22.9098 231.142 23.488 231.571 24.0213C232.24 24.8501 233.003 25.6917 233.261 25.8909L233.507 26.0772V24.7023C233.507 23.3659 233.595 22.3894 233.742 22.0874C233.842 21.8818 234.041 22.0167 234.687 22.7299C235.532 23.6551 235.673 23.6872 235.596 22.9226C235.549 22.4986 235.62 22.2802 235.79 22.2802C235.866 22.2802 235.943 22.4087 236.06 22.7492C236.788 24.7987 237.938 26.8739 240.373 30.536C241.036 31.5254 241.876 32.8296 242.245 33.4271C242.615 34.031 242.926 34.5322 242.938 34.545C242.944 34.5579 243.008 34.5193 243.073 34.4551C243.178 34.3523 243.196 34.3523 243.331 34.4422C243.619 34.6478 244.076 35.4509 245.039 37.4169C245.385 38.1172 245.69 38.7275 245.725 38.7596C245.761 38.7982 245.766 38.7018 245.737 38.4962C245.714 38.2714 245.719 38.1493 245.772 38.1172C245.866 38.0529 245.872 38.0658 246.101 38.7661C247.327 42.5245 247.685 47.3624 247.034 51.4806C246.917 52.2131 246.635 53.5109 246.441 54.1726L246.295 54.6802L246.488 55.04C246.782 55.5796 247.591 56.4406 248.266 56.9224C248.935 57.4043 249.481 57.7062 251.107 58.5222C252.445 59.1968 253.084 59.563 253.695 60.0127C254.223 60.3982 254.962 61.1692 255.256 61.6382C255.432 61.9209 255.608 62.0686 256.242 62.5055C257.832 63.5913 259.035 64.6193 260.138 65.8335C260.69 66.4439 260.795 66.5338 261.001 66.566C261.359 66.6109 261.893 66.8872 262.157 67.1635C262.286 67.3048 262.926 68.0822 263.583 68.8917C265.032 70.6971 265.754 71.468 266.799 72.3161C267.239 72.6759 267.955 73.2541 268.383 73.6075C269.768 74.7382 270.472 75.5028 271.1 76.55C271.47 77.1539 271.734 77.7514 271.652 77.7771C271.458 77.8542 264.733 76.6849 264.058 76.4601C263.97 76.4344 263.994 76.4986 264.17 76.7685C265.302 78.471 265.69 79.3448 266.136 81.2144C266.294 81.8761 266.323 81.9275 266.558 82.146C267.415 82.9234 267.826 83.7008 267.838 84.5681C267.843 84.8058 267.873 84.8508 268.307 85.2556C268.559 85.4933 269.046 86.0265 269.387 86.4377C270.097 87.2858 272.538 90.5303 272.714 90.8644C272.779 90.9864 272.873 91.3526 272.92 91.6803C273.031 92.4513 273.213 92.8625 273.876 93.8519C274.85 95.3039 275.109 95.9913 274.962 96.8008L274.927 97L274.416 96.9936C274.14 96.9872 273.724 96.9615 273.495 96.9358Z" fill="#7C009B"/>
</svg>
